<svg width="60" height="60" viewBox="0 0 60 60" fill="none" xmlns="http://www.w3.org/2000/svg">
<g clip-path="url(#clip0)">
<path d="M30.3137 59.6156C46.4956 59.6156 59.6137 46.4976 59.6137 30.3156C59.6137 14.1337 46.4956 1.01562 30.3137 1.01562C14.1317 1.01562 1.01367 14.1337 1.01367 30.3156C1.01367 46.4976 14.1317 59.6156 30.3137 59.6156Z" fill="white" stroke="#B3B3B3" stroke-width="0.25" stroke-miterlimit="10"/>
<path d="M10.4129 36.2145L7.81289 33.6145C6.01289 31.8145 6.01289 28.8145 7.81289 27.0145L10.4129 24.4145C12.2129 22.6145 15.2129 22.6145 17.0129 24.4145L19.6129 27.0145C21.4129 28.8145 21.4129 31.8145 19.6129 33.6145L17.0129 36.2145C15.2129 38.0145 12.3129 38.0145 10.4129 36.2145Z" fill="#F5B828"/>
<path d="M13.9133 38.6149C13.1133 38.6149 12.5133 38.4149 11.9133 37.8149C10.0133 35.9149 8.21328 34.1149 6.31328 32.2149C5.21328 31.1149 5.21328 29.5149 6.31328 28.4149C8.21328 26.5149 10.1133 24.6149 12.0133 22.7149C13.0133 21.7149 14.6133 21.8149 15.6133 22.7149C17.5133 24.6149 19.5133 26.5149 21.4133 28.5149C22.4133 29.5149 22.4133 31.1149 21.4133 32.1149C19.5133 34.0149 17.6133 35.9149 15.7133 37.8149C15.2133 38.3149 14.6133 38.6149 13.9133 38.6149ZM20.0133 30.2149C20.0133 29.8149 19.9133 29.5149 19.6133 29.3149C18.9133 28.6149 18.2133 27.9149 17.5133 27.2149C17.0133 26.7149 16.2133 26.7149 15.7133 27.2149C15.4133 27.5149 15.0133 27.9149 14.7133 28.2149C14.3133 28.6149 14.3133 29.1149 14.7133 29.5149C15.0133 29.9149 15.6133 29.9149 16.0133 29.6149C16.2133 29.5149 16.3133 29.3149 16.5133 29.1149C16.6133 28.9149 16.7133 29.0149 16.9133 29.1149C17.2133 29.4149 17.4133 29.7149 17.8133 29.9149C18.0133 30.1149 18.0133 30.2149 17.8133 30.4149C16.6133 31.6149 15.3133 32.9149 14.1133 34.1149C13.9133 34.3149 13.7133 34.4149 13.4133 34.1149C12.3133 33.0149 11.2133 32.0149 10.2133 30.9149C9.91328 30.6149 9.91328 30.4149 10.2133 30.1149C10.6133 29.7149 11.0133 29.3149 11.4133 28.9149C12.5133 27.8149 13.6133 26.7149 14.7133 25.6149C15.0133 25.3149 15.1133 25.0149 15.0133 24.6149C14.9133 24.2149 14.6133 24.0149 14.3133 24.0149C13.9133 23.9149 13.6133 24.1149 13.4133 24.4149C12.4133 25.4149 11.3133 26.5149 10.3133 27.5149C9.61328 28.2149 8.91328 28.9149 8.31328 29.6149C7.71328 30.2149 7.71328 31.0149 8.21328 31.6149C9.81328 33.2149 11.4133 34.8149 13.0133 36.4149C13.5133 36.9149 14.2133 36.9149 14.8133 36.5149C15.0133 36.3149 15.2133 36.1149 15.4133 35.9149C16.9133 34.4149 18.4133 32.9149 19.9133 31.4149C19.9133 31.0149 20.1133 30.6149 20.0133 30.2149Z" fill="#F1B82C"/>
<path d="M39.3135 27.8156C39.3135 26.8156 39.3135 25.7156 39.3135 24.7156C39.3135 24.2156 39.5135 24.0156 39.8135 24.0156C40.2135 24.0156 40.3135 24.2156 40.3135 24.7156C40.3135 25.5156 40.3135 26.2156 40.3135 27.0156C40.3135 27.4156 40.4135 27.5156 40.8135 27.5156C41.6135 27.5156 42.5135 27.5156 43.3135 27.5156C43.6135 27.5156 43.8135 27.5156 44.1135 27.6156C44.8135 27.7156 45.1135 28.1156 45.2135 28.8156C45.2135 29.5156 45.2135 30.3156 45.2135 31.0156C45.2135 31.8156 44.8135 32.2156 44.0135 32.3156C42.8135 32.4156 41.7135 32.4156 40.5135 32.3156C39.7135 32.2156 39.3135 31.7156 39.3135 30.9156C39.3135 29.9156 39.3135 28.9156 39.3135 27.8156ZM42.1135 28.6156C42.1135 28.6156 42.1135 28.5156 42.1135 28.6156C41.7135 28.6156 41.2135 28.6156 40.8135 28.6156C40.5135 28.6156 40.4135 28.7156 40.4135 29.0156C40.4135 29.6156 40.4135 30.3156 40.4135 30.9156C40.4135 31.3156 40.5135 31.4156 40.9135 31.4156C41.8135 31.4156 42.8135 31.4156 43.7135 31.4156C44.0135 31.4156 44.1135 31.3156 44.1135 31.0156C44.1135 30.4156 44.1135 29.8156 44.1135 29.1156C44.1135 28.7156 43.9135 28.6156 43.6135 28.6156C43.1135 28.6156 42.6135 28.6156 42.1135 28.6156Z" fill="#070403"/>
<path d="M24.2129 30.3156C24.2129 29.8156 24.2129 29.4156 24.2129 28.9156C24.2129 28.1156 24.6129 27.7156 25.3129 27.6156C26.2129 27.5156 27.1129 27.4156 27.9129 27.7156C28.0129 27.7156 28.1129 27.7156 28.2129 27.7156C29.1129 27.4156 30.0129 27.5156 30.9129 27.6156C31.7129 27.7156 32.1129 28.1156 32.1129 28.9156C32.1129 29.9156 32.1129 30.9156 32.1129 31.8156C32.1129 32.2156 31.9129 32.4156 31.5129 32.4156C31.1129 32.4156 31.0129 32.2156 31.0129 31.8156C31.0129 30.9156 31.0129 30.0156 31.0129 29.1156C31.0129 28.5156 30.9129 28.5156 30.3129 28.4156C29.9129 28.4156 29.5129 28.4156 29.1129 28.4156C28.7129 28.4156 28.6129 28.6156 28.6129 29.0156C28.6129 29.9156 28.6129 30.8156 28.6129 31.7156C28.6129 31.9156 28.5129 32.1156 28.3129 32.2156C28.1129 32.3156 27.9129 32.3156 27.7129 32.1156C27.5129 32.0156 27.5129 31.8156 27.5129 31.6156C27.5129 30.7156 27.5129 29.9156 27.5129 29.0156C27.5129 28.4156 27.4129 28.4156 26.9129 28.3156C26.5129 28.3156 26.2129 28.3156 25.8129 28.3156C25.4129 28.3156 25.3129 28.5156 25.3129 28.8156C25.3129 29.7156 25.3129 30.6156 25.3129 31.5156C25.3129 32.0156 25.1129 32.2156 24.8129 32.2156C24.4129 32.2156 24.2129 32.0156 24.2129 31.5156C24.2129 31.2156 24.2129 30.8156 24.2129 30.3156Z" fill="#070403"/>
<path d="M35.7135 32.4141C35.1135 32.4141 34.5135 32.5141 34.0135 32.4141C33.2135 32.3141 32.8135 31.9141 32.8135 31.0141C32.8135 30.3141 32.8135 29.6141 32.8135 29.0141C32.8135 28.2141 33.2135 27.7141 34.0135 27.6141C35.1135 27.5141 36.3135 27.5141 37.4135 27.6141C38.2135 27.7141 38.6135 28.2141 38.6135 29.0141C38.6135 29.6141 38.6135 30.3141 38.6135 30.9141C38.6135 31.8141 38.2135 32.3141 37.3135 32.3141C36.7135 32.4141 36.2135 32.4141 35.7135 32.4141ZM35.7135 31.3141C36.2135 31.3141 36.6135 31.3141 37.1135 31.3141C37.4135 31.3141 37.5135 31.2141 37.5135 30.9141C37.5135 30.2141 37.5135 29.6141 37.5135 28.9141C37.5135 28.7141 37.4135 28.5141 37.1135 28.5141C36.1135 28.5141 35.2135 28.5141 34.2135 28.5141C33.9135 28.5141 33.8135 28.7141 33.8135 29.0141C33.8135 29.6141 33.8135 30.3141 33.8135 30.9141C33.8135 31.2141 33.9135 31.3141 34.2135 31.3141C34.7135 31.3141 35.2135 31.3141 35.7135 31.3141Z" fill="#070403"/>
<path d="M52.6134 30.5141C52.0134 30.5141 51.4134 30.5141 50.7134 30.5141C50.6134 30.5141 50.4134 30.4141 50.3134 30.6141C50.3134 30.8141 50.3134 31.1141 50.5134 31.2141C50.7134 31.3141 51.0134 31.3141 51.2134 31.3141C51.5134 31.3141 51.8134 31.3141 52.1134 31.3141C52.4134 31.3141 52.5134 31.5141 52.6134 31.7141C52.6134 32.0141 52.5134 32.2141 52.2134 32.3141C51.4134 32.4141 50.5134 32.4141 49.8134 32.0141C49.4134 31.8141 49.2134 31.5141 49.2134 31.0141C49.2134 30.2141 49.1134 29.5141 49.2134 28.7141C49.3134 28.0141 49.6134 27.7141 50.3134 27.5141C50.9134 27.4141 51.5134 27.4141 52.1134 27.4141C52.7134 27.4141 53.2134 27.4141 53.8134 27.4141C54.8134 27.4141 55.1134 27.8141 55.1134 28.8141C55.1134 29.1141 55.1134 29.5141 55.1134 29.8141C55.1134 30.2141 54.9134 30.4141 54.5134 30.4141C54.2134 30.4141 53.8134 30.4141 53.5134 30.4141C53.3134 30.5141 53.0134 30.5141 52.6134 30.5141ZM52.2134 29.5141C52.7134 29.5141 53.2134 29.5141 53.8134 29.5141C53.9134 29.5141 54.0134 29.5141 54.1134 29.4141C54.1134 29.2141 54.2134 28.9141 54.1134 28.7141C54.0134 28.5141 53.8134 28.6141 53.7134 28.6141C53.0134 28.6141 52.2134 28.6141 51.5134 28.6141C51.3134 28.6141 51.0134 28.6141 50.8134 28.6141C50.4134 28.7141 50.5134 29.0141 50.5134 29.3141C50.5134 29.6141 50.7134 29.5141 50.9134 29.5141C51.2134 29.5141 51.7134 29.5141 52.2134 29.5141Z" fill="#070403"/>
<path d="M47.6133 28.2152C47.6133 27.1152 47.6133 25.9152 47.6133 24.8152C47.6133 24.3152 47.8133 24.1152 48.1133 24.1152C48.5133 24.1152 48.6133 24.3152 48.6133 24.8152C48.6133 26.7152 48.6133 28.6152 48.6133 30.6152C48.6133 31.0152 48.6133 31.4152 48.6133 31.8152C48.6133 32.2152 48.4133 32.4152 48.1133 32.4152C47.7133 32.4152 47.6133 32.2152 47.6133 31.8152C47.6133 30.6152 47.6133 29.4152 47.6133 28.2152Z" fill="#070403"/>
<path d="M46.9131 29.9156C46.9131 30.5156 46.9131 31.1156 46.9131 31.8156C46.9131 32.2156 46.7131 32.5156 46.4131 32.5156C46.1131 32.5156 45.9131 32.3156 45.9131 31.8156C45.9131 30.6156 45.9131 29.3156 45.9131 28.1156C45.9131 27.7156 46.1131 27.5156 46.4131 27.5156C46.8131 27.5156 46.9131 27.7156 46.9131 28.1156C46.9131 28.6156 46.9131 29.3156 46.9131 29.9156Z" fill="#070403"/>
<path d="M46.4131 27.2148C46.0131 27.2148 45.9131 27.0148 45.9131 26.7148C45.9131 26.4148 46.1131 26.2148 46.4131 26.2148C46.7131 26.2148 46.9131 26.4148 46.9131 26.7148C46.9131 27.0148 46.7131 27.2148 46.4131 27.2148Z" fill="#070403"/>
<path d="M20.0135 30.2141C20.0135 30.6141 19.8135 31.0141 19.5135 31.3141C18.0135 32.8141 16.5135 34.3141 15.0135 35.8141C14.8135 36.0141 14.6135 36.2141 14.4135 36.4141C13.9135 36.8141 13.1135 36.8141 12.6135 36.3141C11.0135 34.7141 9.41355 33.1141 7.81355 31.5141C7.31355 30.9141 7.31355 30.1141 7.91355 29.5141C8.61355 28.8141 9.31355 28.1141 9.91355 27.4141C10.9135 26.4141 12.0135 25.3141 13.0135 24.3141C13.3135 24.0141 13.5135 23.9141 13.9135 23.9141C14.3135 24.0141 14.5135 24.2141 14.6135 24.5141C14.7135 24.9141 14.6135 25.2141 14.3135 25.5141C13.2135 26.6141 12.1135 27.7141 11.0135 28.8141C10.6135 29.2141 10.2135 29.6141 9.81355 30.0141C9.51355 30.3141 9.51355 30.5141 9.81355 30.8141C10.9135 31.9141 12.0135 32.9141 13.0135 34.0141C13.3135 34.3141 13.5135 34.2141 13.7135 34.0141C14.9135 32.8141 16.2135 31.5141 17.4135 30.3141C17.6135 30.1141 17.6135 30.0141 17.4135 29.8141C17.1135 29.5141 16.8135 29.2141 16.5135 29.0141C16.4135 28.9141 16.3135 28.8141 16.1135 29.0141C16.0135 29.2141 15.8135 29.3141 15.6135 29.5141C15.2135 29.8141 14.6135 29.8141 14.3135 29.4141C14.0135 29.0141 14.0135 28.5141 14.3135 28.1141C14.6135 27.8141 15.0135 27.4141 15.3135 27.1141C15.8135 26.6141 16.6135 26.6141 17.1135 27.1141C17.8135 27.8141 18.5135 28.5141 19.2135 29.2141C19.9135 29.5141 20.1135 29.9141 20.0135 30.2141Z" fill="#070403"/>
<path d="M14.6131 24.2154C14.6131 24.2154 15.1131 24.7154 14.8131 25.2154C14.5131 25.6154 10.1131 30.0154 10.1131 30.0154C10.1131 30.0154 9.51309 30.4154 9.81309 30.8154C10.3131 31.3154 13.2131 34.1154 13.2131 34.1154C13.2131 34.1154 13.5131 34.4154 13.9131 34.0154C14.3131 33.6154 17.6131 30.4154 17.6131 30.4154C17.6131 30.4154 18.0131 30.2154 17.7131 29.9154C17.4131 29.6154 16.8131 29.0154 16.8131 29.0154C16.8131 29.0154 16.6131 28.8154 16.3131 29.0154C16.0131 29.2154 15.6131 29.6154 15.6131 29.6154C15.6131 29.6154 14.9131 29.8154 14.6131 29.3154C14.3131 28.8154 14.4131 28.4154 14.6131 28.0154C15.0131 27.7154 15.9131 26.9154 15.9131 26.9154C15.9131 26.9154 16.6131 26.3154 17.6131 27.2154C18.5131 28.1154 19.6131 29.2154 19.6131 29.2154C19.6131 29.2154 20.4131 30.1154 19.7131 30.9154C19.0131 31.7154 14.8131 35.9154 14.8131 35.9154C14.8131 35.9154 13.7131 37.2154 12.6131 36.1154C11.5131 35.0154 7.91309 31.4154 7.91309 31.4154C7.91309 31.4154 6.91309 30.5154 8.11309 29.3154C9.31309 28.1154 13.2131 24.2154 13.2131 24.2154C13.2131 24.2154 13.9131 23.5154 14.6131 24.2154Z" fill="#000005"/>
</g>
<defs>
<clipPath id="clip0">
<rect width="58.8" height="58.8" fill="white" transform="translate(0.914062 0.916016)"/>
</clipPath>
</defs>
</svg>
